HIERARCHY
ROOT Hips
{
	OFFSET -3.958830 18.904000 13.208200
	CHANNELS 6 Xposition Yposition Zposition Zrotation Yrotation Xrotation 
	JOINT LHipJoint
	{
		OFFSET 0.000000 0.000000 0.000000
		CHANNELS 3 Zrotation Yrotation Xrotation
		JOINT LeftUpLeg
		{
			OFFSET 1.800000 -1.400000 0.085000
			CHANNELS 3 Zrotation Yrotation Xrotation
			JOINT LeftLeg
			{
				OFFSET 2.215000 -6.000000 0.000000
				CHANNELS 3 Zrotation Yrotation Xrotation
				JOINT LeftFoot
				{
					OFFSET 2.500000 -6.900000 0.000000
					CHANNELS 3 Zrotation Yrotation Xrotation
					JOINT LeftToeBase
					{
						OFFSET 0.200000 -0.500000 1.950000
						CHANNELS 3 Zrotation Yrotation Xrotation
						End Site
						{
							OFFSET 0.000000 0.000000 0.000000
						}
					}
				}
			}
		}
	}
	JOINT RHipJoint
	{
		OFFSET 0.000000 0.000000 0.000000
		CHANNELS 3 Zrotation Yrotation Xrotation
		JOINT RightUpLeg
		{
			OFFSET -1.800000 -1.400000 0.085000
			CHANNELS 3 Zrotation Yrotation Xrotation
			JOINT RightLeg
			{
				OFFSET -2.215000 -6.000000 0.000000
				CHANNELS 3 Zrotation Yrotation Xrotation
				JOINT RightFoot
				{
					OFFSET -2.500000 -6.900000 0.000000
					CHANNELS 3 Zrotation Yrotation Xrotation
					JOINT RightToeBase
					{
						OFFSET -0.200000 -0.500000 1.950000
						CHANNELS 3 Zrotation Yrotation Xrotation
						End Site
						{
							OFFSET 0.000000 0.000000 0.000000
						}
					}
				}
			}
		}
	}
	JOINT LowerBack
	{
		OFFSET 0.000000 0.000000 0.000000
		CHANNELS 3 Zrotation Yrotation Xrotation
		JOINT Spine
		{
			OFFSET -0.087000 1.940000 -0.288900
			CHANNELS 3 Zrotation Yrotation Xrotation
			JOINT Spine1
			{
				OFFSET 0.000000 1.950000 0.060000
				CHANNELS 3 Zrotation Yrotation Xrotation
				JOINT Neck
				{
					OFFSET 0.000000 0.000000 0.000000
					CHANNELS 3 Zrotation Yrotation Xrotation
					JOINT Neck1
					{
						OFFSET 0.000000 1.600000 0.340000
						CHANNELS 3 Zrotation Yrotation Xrotation
						JOINT Head
						{
							OFFSET 0.000000 1.667000 -0.240000
							CHANNELS 3 Zrotation Yrotation Xrotation
							End Site
							{
								OFFSET 0.000000 0.000000 0.000000
							}
						}
					}
				}
				JOINT LeftShoulder
				{
					OFFSET 0.000000 0.000000 0.000000
					CHANNELS 3 Zrotation Yrotation Xrotation
					JOINT LeftArm
					{
						OFFSET 2.700000 1.550000 -0.730000
						CHANNELS 3 Zrotation Yrotation Xrotation
						JOINT LeftForeArm
						{
							OFFSET 5.450000 0.000000 0.000000
							CHANNELS 3 Zrotation Yrotation Xrotation
							JOINT LeftHand
							{
								OFFSET 3.450000 0.000000 0.000000
								CHANNELS 3 Zrotation Yrotation Xrotation
								JOINT LeftHandIndex1
								{
									OFFSET 0.750000 0.000000 0.000000
									CHANNELS 3 Zrotation Yrotation Xrotation
									End Site
									{
										OFFSET 0.000000 0.000000 0.000000
									}
								}
							}
						}
					}
				}
				JOINT RightShoulder
				{
					OFFSET 0.000000 0.000000 0.000000
					CHANNELS 3 Zrotation Yrotation Xrotation
					JOINT RightArm
					{
						OFFSET -2.700000 1.550000 -0.730000
						CHANNELS 3 Zrotation Yrotation Xrotation
						JOINT RightForeArm
						{
							OFFSET -5.450000 0.000000 0.000000
							CHANNELS 3 Zrotation Yrotation Xrotation
							JOINT RightHand
							{
								OFFSET -3.450000 0.000000 0.000000
								CHANNELS 3 Zrotation Yrotation Xrotation
								JOINT RightHandIndex1
								{
									OFFSET -0.750000 0.000000 0.000000
									CHANNELS 3 Zrotation Yrotation Xrotation
									End Site
									{
										OFFSET 0.000000 0.000000 0.000000
									}
								}
							}
						}
					}
				}
			}
		}
	}
}
MOTION
Frames: 8
Frame Time: 0.016667
7.210070 17.486730 -17.571430 -5.449762 -38.833600 12.242027 -15.011273 15.481727 3.482437 15.809511 -1.496350 -10.956215 -6.014982 8.366223 21.135448 -2.001296 6.453509 3.160073 -0.601980 -1.438110 -1.311850 17.783112 -10.291530 3.775346 -1.771258 3.646499 -21.291979 6.759364 -3.968462 4.097334 0.427529 -2.108373 5.503842 -0.519990 1.462430 -0.892720 -2.029903 -5.203892 -9.263236 13.830709 -5.884116 16.064054 -7.698093 4.486463 -37.966434 6.516672 -5.093663 -13.211126 -13.807822 -7.451158 57.323780 -8.374690 -19.306180 -0.073560 -5.587610 30.055106 0.681602 -30.624770 42.429341 4.082721 -106.469030 -70.197680 82.378523 -4.214524 1.682024 1.784440 0.617570 -1.384310 0.368420 -8.130357 -13.998998 7.029647 18.842193 -14.774370 -6.041774 -13.989008 6.700364 1.787422 0.335108 -0.019076 -1.756810 1.829640 1.322070 -0.905550 
7.006640 17.515680 -17.520660 -5.245712 -41.567573 13.324092 -15.030973 15.477265 3.665571 15.985989 -2.082090 -13.054044 -7.673423 9.300983 23.758801 -1.848342 6.871500 2.993454 -0.678610 -1.539960 -1.386750 17.788985 -10.078366 3.776170 -0.469507 3.823527 -20.992915 5.803502 -3.744659 3.849699 0.492827 -2.061802 5.557070 -0.603480 1.494280 -0.904000 -2.131833 -5.725782 -9.265671 14.972015 -6.606207 15.246862 -7.236898 2.944781 -38.882042 6.533021 -7.521818 -12.989005 -19.562053 -4.905862 52.865843 -8.250780 -18.186580 2.747270 -4.154936 32.077045 0.884040 -34.651051 47.663730 -0.180455 -100.723190 -74.181029 77.981940 -4.289827 1.349974 1.726680 0.634500 -1.445660 0.370890 -8.495924 -15.108006 7.621195 17.494788 -18.986338 -5.925390 -13.182230 4.882879 1.928972 0.422902 -0.005518 -1.741840 1.754290 1.325390 -0.875130 
6.809530 17.551930 -17.476410 -5.209483 -44.604499 13.790140 -15.032054 15.433254 3.855542 16.423595 -2.483891 -14.096692 -9.638203 10.148639 25.129397 -1.725550 7.324785 2.836959 -0.759720 -1.637520 -1.519820 17.815575 -9.883549 3.748720 0.455935 3.864438 -19.889400 5.614353 -3.717125 3.662235 0.530922 -2.117807 5.577758 -0.660770 1.595890 -0.925120 -2.375197 -6.203563 -9.141266 17.251744 -7.227331 14.077203 -7.642982 0.625486 -40.149585 6.138196 -10.099836 -12.490911 -25.811225 -1.310612 50.495001 -5.967760 -17.604560 5.666260 -2.619347 33.880380 0.963828 -35.870944 53.031569 -5.999697 -109.149690 -78.549364 93.777434 -4.202801 0.091617 1.687730 0.665340 -1.524010 0.399800 -8.311035 -16.157786 8.116797 15.403895 -22.070651 -5.313428 -12.561483 -0.312781 2.182323 0.520208 0.145705 -1.763230 1.755130 1.372760 -0.825570 
6.624340 17.573820 -17.446610 -6.324795 -49.096396 13.652223 -15.096679 15.296712 4.101325 18.246719 -2.649672 -13.235859 -13.385187 11.667467 25.437496 -1.549811 7.979456 2.559001 -0.685200 -1.541370 -1.526510 17.805865 -9.663609 3.637879 1.573488 3.539735 -17.417787 5.635838 -3.828207 3.752907 0.445640 -2.203105 5.534002 -0.628420 1.581710 -0.947660 -2.560602 -6.663205 -8.934593 19.897209 -8.036542 13.751124 -8.930127 -1.035312 -40.470771 6.076142 -12.207999 -12.239882 -32.666849 3.846993 51.100779 -0.423200 -17.258440 3.043590 -2.808003 34.619372 0.686236 -36.946783 57.527607 -11.839432 -110.553340 -81.930397 104.170297 -3.815550 -1.050317 1.734980 0.589010 -1.488870 0.435690 -7.312606 -16.243730 8.888963 14.427987 -25.963847 -4.732077 -13.398287 -0.866613 2.377288 0.567387 0.209131 -1.742060 1.762440 1.334740 -0.795470 
6.439960 17.599640 -17.451420 -6.017805 -53.482704 12.342131 -15.101786 14.967102 4.322113 19.056203 -3.198101 -12.325701 -17.247785 13.211457 26.222182 -1.341466 8.640197 2.311283 -0.651340 -1.446980 -1.587990 17.845847 -9.665947 3.529834 1.923695 2.933492 -15.195971 5.096911 -3.859365 3.568966 0.377766 -2.321279 5.513036 -0.582580 1.630430 -0.999540 -2.830036 -6.478945 -8.733296 20.775364 -9.532585 12.631754 -9.629242 -3.600340 -40.454506 5.211520 -13.518605 -11.723654 -38.422647 9.947887 50.640301 6.722920 -16.254340 1.585270 -3.408855 35.097686 0.733906 -40.211109 60.702270 -17.072482 -117.161514 -89.066926 124.367475 -3.559475 -0.278501 1.738600 0.555980 -1.480200 0.482710 -5.122261 -17.353574 8.751358 13.549345 -29.717746 -4.490162 -16.084926 5.496094 2.226152 0.532789 0.073953 -1.745150 1.828810 1.316580 -0.743670 
6.313340 17.590460 -17.471270 -5.559966 -56.010706 10.111472 -15.127499 14.441572 4.620436 20.781412 -4.062158 -11.746665 -22.298722 15.086033 26.681439 -1.156926 9.463232 1.967757 -0.542150 -1.289730 -1.541310 17.896000 -9.671348 3.350380 1.480713 2.150937 -12.763550 5.749876 -4.164080 3.513133 0.246273 -2.541528 5.404405 -0.487850 1.608400 -1.005680 -3.024475 -5.949131 -8.643452 20.630201 -10.246011 12.825293 -10.122819 -5.220116 -39.877375 3.863583 -13.267507 -10.849411 -40.463955 13.570939 52.828769 11.372470 -15.456430 -1.182310 -3.596615 34.058043 0.962574 -41.322637 61.730739 -16.175670 88.532653 -85.177328 -69.330871 -2.828978 -4.576242 1.779010 0.511560 -1.423570 0.505050 -3.082115 -18.251843 8.097330 12.501967 -32.210429 -3.908692 -18.300194 5.554029 2.336462 0.581862 0.089657 -1.730630 1.874130 1.279800 -0.738540 
6.200680 17.583600 -17.486410 -6.835415 -59.034675 9.601050 -15.183195 14.074069 4.975374 22.704610 -4.573062 -11.421903 -27.075742 16.531916 25.953405 -1.066404 10.103088 1.686940 -0.410340 -1.148180 -1.418410 17.881420 -9.599905 3.302437 1.857056 1.658631 -10.637127 6.266607 -4.400101 3.326353 0.097698 -2.705242 5.292674 -0.391780 1.542960 -0.968650 -3.131842 -5.732141 -8.794578 20.646420 -9.934859 14.092979 -11.517437 -5.063110 -39.475732 4.354074 -12.281507 -9.696053 -39.202005 14.910542 57.260915 12.078460 -13.977030 -4.105050 -6.457050 34.725293 1.122443 -36.243601 58.860807 -4.980951 105.663104 -75.330705 -87.740836 -4.237990 -2.916165 1.866080 0.472400 -1.336520 0.507590 -1.299579 -19.764041 7.623055 11.558169 -34.279148 -3.229105 -19.266303 5.090565 2.481008 0.566151 0.144168 -1.723550 1.902900 1.244920 -0.785270 
6.084030 17.564940 -17.505020 -9.492316 -63.577671 11.986768 -15.359608 13.873894 5.246025 23.808601 -4.466594 -11.988606 -30.640034 16.967207 23.852634 -0.961439 10.230306 1.613148 -0.364330 -1.082890 -1.334290 17.749230 -9.467129 3.269167 3.230728 1.877815 -10.689453 6.192074 -4.567102 4.779331 0.070490 -2.668677 5.296636 -0.382190 1.448060 -0.955410 -3.108790 -5.816531 -8.901352 20.478629 -9.288005 15.694895 -12.303319 -3.690710 -38.771836 5.888159 -11.480660 -10.537085 -36.522149 13.958462 58.210214 10.474720 -12.635770 -5.060350 -6.498438 35.609715 1.090401 -32.855064 54.739119 0.417317 114.799922 -74.082579 -113.113139 -4.326042 0.693821 1.883900 0.445830 -1.270000 0.488070 -3.599549 -20.850538 7.568560 15.470005 -37.985769 -5.200159 -18.858926 11.245838 2.018267 0.525736 -0.008067 -1.681480 1.851120 1.185490 -0.813340 
